<?xml version="1.0" encoding="utf-8"?>
<svg xmlns="http://www.w3.org/2000/svg" xmlns:xlink="http://www.w3.org/1999/xlink" width="600" height="400" viewBox="0 0 2400 1600">
<defs>
  <clipPath id="clip720">
    <rect x="0" y="0" width="2400" height="1600"/>
  </clipPath>
</defs>
<path clip-path="url(#clip720)" d="
M0 1600 L2400 1600 L2400 0 L0 0  Z
  " fill="#333333" fill-rule="evenodd" fill-opacity="1"/>
<defs>
  <clipPath id="clip721">
    <rect x="480" y="0" width="1681" height="1600"/>
  </clipPath>
</defs>
<path clip-path="url(#clip720)" d="
M205.723 1423.18 L2352.76 1423.18 L2352.76 47.2441 L205.723 47.2441  Z
  " fill="#333333" fill-rule="evenodd" fill-opacity="1"/>
<defs>
  <clipPath id="clip722">
    <rect x="205" y="47" width="2148" height="1377"/>
  </clipPath>
</defs>
<polyline clip-path="url(#clip722)" style="stroke:#ffffff; stroke-width:2; stroke-opacity:0.5; fill:none" points="
  635.129,1423.18 635.129,47.2441 
  "/>
<polyline clip-path="url(#clip722)" style="stroke:#ffffff; stroke-width:2; stroke-opacity:0.5; fill:none" points="
  761.426,1423.18 761.426,47.2441 
  "/>
<polyline clip-path="url(#clip722)" style="stroke:#ffffff; stroke-width:2; stroke-opacity:0.5; fill:none" points="
  887.722,1423.18 887.722,47.2441 
  "/>
<polyline clip-path="url(#clip722)" style="stroke:#ffffff; stroke-width:2; stroke-opacity:0.5; fill:none" points="
  1014.02,1423.18 1014.02,47.2441 
  "/>
<polyline clip-path="url(#clip722)" style="stroke:#ffffff; stroke-width:2; stroke-opacity:0.5; fill:none" points="
  1140.31,1423.18 1140.31,47.2441 
  "/>
<polyline clip-path="url(#clip722)" style="stroke:#ffffff; stroke-width:2; stroke-opacity:0.5; fill:none" points="
  1266.61,1423.18 1266.61,47.2441 
  "/>
<polyline clip-path="url(#clip722)" style="stroke:#ffffff; stroke-width:2; stroke-opacity:0.5; fill:none" points="
  1392.91,1423.18 1392.91,47.2441 
  "/>
<polyline clip-path="url(#clip722)" style="stroke:#ffffff; stroke-width:2; stroke-opacity:0.5; fill:none" points="
  1519.2,1423.18 1519.2,47.2441 
  "/>
<polyline clip-path="url(#clip722)" style="stroke:#ffffff; stroke-width:2; stroke-opacity:0.5; fill:none" points="
  1645.5,1423.18 1645.5,47.2441 
  "/>
<polyline clip-path="url(#clip722)" style="stroke:#ffffff; stroke-width:2; stroke-opacity:0.5; fill:none" points="
  1771.79,1423.18 1771.79,47.2441 
  "/>
<polyline clip-path="url(#clip722)" style="stroke:#ffffff; stroke-width:2; stroke-opacity:0.5; fill:none" points="
  1898.09,1423.18 1898.09,47.2441 
  "/>
<polyline clip-path="url(#clip720)" style="stroke:#ffffff; stroke-width:4; stroke-opacity:1; fill:none" points="
  205.723,1423.18 2352.76,1423.18 
  "/>
<polyline clip-path="url(#clip720)" style="stroke:#ffffff; stroke-width:4; stroke-opacity:1; fill:none" points="
  635.129,1423.18 635.129,1406.67 
  "/>
<polyline clip-path="url(#clip720)" style="stroke:#ffffff; stroke-width:4; stroke-opacity:1; fill:none" points="
  761.426,1423.18 761.426,1406.67 
  "/>
<polyline clip-path="url(#clip720)" style="stroke:#ffffff; stroke-width:4; stroke-opacity:1; fill:none" points="
  887.722,1423.18 887.722,1406.67 
  "/>
<polyline clip-path="url(#clip720)" style="stroke:#ffffff; stroke-width:4; stroke-opacity:1; fill:none" points="
  1014.02,1423.18 1014.02,1406.67 
  "/>
<polyline clip-path="url(#clip720)" style="stroke:#ffffff; stroke-width:4; stroke-opacity:1; fill:none" points="
  1140.31,1423.18 1140.31,1406.67 
  "/>
<polyline clip-path="url(#clip720)" style="stroke:#ffffff; stroke-width:4; stroke-opacity:1; fill:none" points="
  1266.61,1423.18 1266.61,1406.67 
  "/>
<polyline clip-path="url(#clip720)" style="stroke:#ffffff; stroke-width:4; stroke-opacity:1; fill:none" points="
  1392.91,1423.18 1392.91,1406.67 
  "/>
<polyline clip-path="url(#clip720)" style="stroke:#ffffff; stroke-width:4; stroke-opacity:1; fill:none" points="
  1519.2,1423.18 1519.2,1406.67 
  "/>
<polyline clip-path="url(#clip720)" style="stroke:#ffffff; stroke-width:4; stroke-opacity:1; fill:none" points="
  1645.5,1423.18 1645.5,1406.67 
  "/>
<polyline clip-path="url(#clip720)" style="stroke:#ffffff; stroke-width:4; stroke-opacity:1; fill:none" points="
  1771.79,1423.18 1771.79,1406.67 
  "/>
<polyline clip-path="url(#clip720)" style="stroke:#ffffff; stroke-width:4; stroke-opacity:1; fill:none" points="
  1898.09,1423.18 1898.09,1406.67 
  "/>
<path clip-path="url(#clip720)" d="M 0 0 M607.826 1479.92 L615.465 1479.92 L615.465 1453.55 L607.155 1455.22 L607.155 1450.96 L615.419 1449.29 L620.095 1449.29 L620.095 1479.92 L627.734 1479.92 L627.734 1483.85 L607.826 1483.85 L607.826 1479.92 Z" fill="#ffffff" fill-rule="evenodd" fill-opacity="1" /><path clip-path="url(#clip720)" d="M 0 0 M632.803 1477.97 L637.687 1477.97 L637.687 1483.85 L632.803 1483.85 L632.803 1477.97 Z" fill="#ffffff" fill-rule="evenodd" fill-opacity="1" /><path clip-path="url(#clip720)" d="M 0 0 M646.784 1479.92 L663.104 1479.92 L663.104 1483.85 L641.159 1483.85 L641.159 1479.92 Q643.822 1477.16 648.405 1472.53 Q653.011 1467.88 654.192 1466.54 Q656.437 1464.01 657.317 1462.28 Q658.22 1460.52 658.22 1458.83 Q658.22 1456.07 656.275 1454.34 Q654.354 1452.6 651.252 1452.6 Q649.053 1452.6 646.599 1453.37 Q644.169 1454.13 641.391 1455.68 L641.391 1450.96 Q644.215 1449.82 646.669 1449.25 Q649.122 1448.67 651.159 1448.67 Q656.53 1448.67 659.724 1451.35 Q662.919 1454.04 662.919 1458.53 Q662.919 1460.66 662.108 1462.58 Q661.321 1464.48 659.215 1467.07 Q658.636 1467.74 655.534 1470.96 Q652.433 1474.15 646.784 1479.92 Z" fill="#ffffff" fill-rule="evenodd" fill-opacity="1" /><path clip-path="url(#clip720)" d="M 0 0 M733.775 1479.92 L741.414 1479.92 L741.414 1453.55 L733.104 1455.22 L733.104 1450.96 L741.368 1449.29 L746.044 1449.29 L746.044 1479.92 L753.682 1479.92 L753.682 1483.85 L733.775 1483.85 L733.775 1479.92 Z" fill="#ffffff" fill-rule="evenodd" fill-opacity="1" /><path clip-path="url(#clip720)" d="M 0 0 M758.752 1477.97 L763.636 1477.97 L763.636 1483.85 L758.752 1483.85 L758.752 1477.97 Z" fill="#ffffff" fill-rule="evenodd" fill-opacity="1" /><path clip-path="url(#clip720)" d="M 0 0 M767.525 1449.29 L789.747 1449.29 L789.747 1451.28 L777.201 1483.85 L772.317 1483.85 L784.122 1453.23 L767.525 1453.23 L767.525 1449.29 Z" fill="#ffffff" fill-rule="evenodd" fill-opacity="1" /><path clip-path="url(#clip720)" d="M 0 0 M864.689 1479.92 L881.009 1479.92 L881.009 1483.85 L859.064 1483.85 L859.064 1479.92 Q861.726 1477.16 866.31 1472.53 Q870.916 1467.88 872.097 1466.54 Q874.342 1464.01 875.222 1462.28 Q876.124 1460.52 876.124 1458.83 Q876.124 1456.07 874.18 1454.34 Q872.259 1452.6 869.157 1452.6 Q866.958 1452.6 864.504 1453.37 Q862.074 1454.13 859.296 1455.68 L859.296 1450.96 Q862.12 1449.82 864.574 1449.25 Q867.027 1448.67 869.064 1448.67 Q874.435 1448.67 877.629 1451.35 Q880.823 1454.04 880.823 1458.53 Q880.823 1460.66 880.013 1462.58 Q879.226 1464.48 877.12 1467.07 Q876.541 1467.74 873.439 1470.96 Q870.337 1474.15 864.689 1479.92 Z" fill="#ffffff" fill-rule="evenodd" fill-opacity="1" /><path clip-path="url(#clip720)" d="M 0 0 M886.078 1477.97 L890.962 1477.97 L890.962 1483.85 L886.078 1483.85 L886.078 1477.97 Z" fill="#ffffff" fill-rule="evenodd" fill-opacity="1" /><path clip-path="url(#clip720)" d="M 0 0 M900.059 1479.92 L916.379 1479.92 L916.379 1483.85 L894.434 1483.85 L894.434 1479.92 Q897.097 1477.16 901.68 1472.53 Q906.286 1467.88 907.467 1466.54 Q909.712 1464.01 910.592 1462.28 Q911.495 1460.52 911.495 1458.83 Q911.495 1456.07 909.55 1454.34 Q907.629 1452.6 904.527 1452.6 Q902.328 1452.6 899.874 1453.37 Q897.444 1454.13 894.666 1455.68 L894.666 1450.96 Q897.49 1449.82 899.944 1449.25 Q902.397 1448.67 904.434 1448.67 Q909.805 1448.67 912.999 1451.35 Q916.194 1454.04 916.194 1458.53 Q916.194 1460.66 915.383 1462.58 Q914.596 1464.48 912.49 1467.07 Q911.911 1467.74 908.809 1470.96 Q905.708 1474.15 900.059 1479.92 Z" fill="#ffffff" fill-rule="evenodd" fill-opacity="1" /><path clip-path="url(#clip720)" d="M 0 0 M990.638 1479.92 L1006.96 1479.92 L1006.96 1483.85 L985.013 1483.85 L985.013 1479.92 Q987.675 1477.16 992.258 1472.53 Q996.865 1467.88 998.045 1466.54 Q1000.29 1464.01 1001.17 1462.28 Q1002.07 1460.52 1002.07 1458.83 Q1002.07 1456.07 1000.13 1454.34 Q998.208 1452.6 995.106 1452.6 Q992.907 1452.6 990.453 1453.37 Q988.022 1454.13 985.245 1455.68 L985.245 1450.96 Q988.069 1449.82 990.522 1449.25 Q992.976 1448.67 995.013 1448.67 Q1000.38 1448.67 1003.58 1451.35 Q1006.77 1454.04 1006.77 1458.53 Q1006.77 1460.66 1005.96 1462.58 Q1005.18 1464.48 1003.07 1467.07 Q1002.49 1467.74 999.388 1470.96 Q996.286 1474.15 990.638 1479.92 Z" fill="#ffffff" fill-rule="evenodd" fill-opacity="1" /><path clip-path="url(#clip720)" d="M 0 0 M1012.03 1477.97 L1016.91 1477.97 L1016.91 1483.85 L1012.03 1483.85 L1012.03 1477.97 Z" fill="#ffffff" fill-rule="evenodd" fill-opacity="1" /><path clip-path="url(#clip720)" d="M 0 0 M1020.8 1449.29 L1043.02 1449.29 L1043.02 1451.28 L1030.48 1483.85 L1025.59 1483.85 L1037.4 1453.23 L1020.8 1453.23 L1020.8 1449.29 Z" fill="#ffffff" fill-rule="evenodd" fill-opacity="1" /><path clip-path="url(#clip720)" d="M 0 0 M1126.88 1465.22 Q1130.23 1465.94 1132.11 1468.2 Q1134.01 1470.47 1134.01 1473.81 Q1134.01 1478.92 1130.49 1481.72 Q1126.97 1484.52 1120.49 1484.52 Q1118.31 1484.52 1116 1484.08 Q1113.71 1483.67 1111.25 1482.81 L1111.25 1478.3 Q1113.2 1479.43 1115.51 1480.01 Q1117.83 1480.59 1120.35 1480.59 Q1124.75 1480.59 1127.04 1478.85 Q1129.35 1477.12 1129.35 1473.81 Q1129.35 1470.75 1127.2 1469.04 Q1125.07 1467.3 1121.25 1467.3 L1117.22 1467.3 L1117.22 1463.46 L1121.44 1463.46 Q1124.89 1463.46 1126.71 1462.09 Q1128.54 1460.7 1128.54 1458.11 Q1128.54 1455.45 1126.64 1454.04 Q1124.77 1452.6 1121.25 1452.6 Q1119.33 1452.6 1117.13 1453.02 Q1114.93 1453.44 1112.29 1454.31 L1112.29 1450.15 Q1114.96 1449.41 1117.27 1449.04 Q1119.61 1448.67 1121.67 1448.67 Q1126.99 1448.67 1130.09 1451.1 Q1133.2 1453.5 1133.2 1457.63 Q1133.2 1460.5 1131.55 1462.49 Q1129.91 1464.45 1126.88 1465.22 Z" fill="#ffffff" fill-rule="evenodd" fill-opacity="1" /><path clip-path="url(#clip720)" d="M 0 0 M1139.08 1477.97 L1143.96 1477.97 L1143.96 1483.85 L1139.08 1483.85 L1139.08 1477.97 Z" fill="#ffffff" fill-rule="evenodd" fill-opacity="1" /><path clip-path="url(#clip720)" d="M 0 0 M1153.06 1479.92 L1169.38 1479.92 L1169.38 1483.85 L1147.43 1483.85 L1147.43 1479.92 Q1150.09 1477.16 1154.68 1472.53 Q1159.28 1467.88 1160.46 1466.54 Q1162.71 1464.01 1163.59 1462.28 Q1164.49 1460.52 1164.49 1458.83 Q1164.49 1456.07 1162.55 1454.34 Q1160.63 1452.6 1157.52 1452.6 Q1155.33 1452.6 1152.87 1453.37 Q1150.44 1454.13 1147.66 1455.68 L1147.66 1450.96 Q1150.49 1449.82 1152.94 1449.25 Q1155.39 1448.67 1157.43 1448.67 Q1162.8 1448.67 1166 1451.35 Q1169.19 1454.04 1169.19 1458.53 Q1169.19 1460.66 1168.38 1462.58 Q1167.59 1464.48 1165.49 1467.07 Q1164.91 1467.74 1161.81 1470.96 Q1158.7 1474.15 1153.06 1479.92 Z" fill="#ffffff" fill-rule="evenodd" fill-opacity="1" /><path clip-path="url(#clip720)" d="M 0 0 M1252.83 1465.22 Q1256.18 1465.94 1258.06 1468.2 Q1259.95 1470.47 1259.95 1473.81 Q1259.95 1478.92 1256.44 1481.72 Q1252.92 1484.52 1246.44 1484.52 Q1244.26 1484.52 1241.95 1484.08 Q1239.65 1483.67 1237.2 1482.81 L1237.2 1478.3 Q1239.14 1479.43 1241.46 1480.01 Q1243.77 1480.59 1246.3 1480.59 Q1250.7 1480.59 1252.99 1478.85 Q1255.3 1477.12 1255.3 1473.81 Q1255.3 1470.75 1253.15 1469.04 Q1251.02 1467.3 1247.2 1467.3 L1243.17 1467.3 L1243.17 1463.46 L1247.39 1463.46 Q1250.83 1463.46 1252.66 1462.09 Q1254.49 1460.7 1254.49 1458.11 Q1254.49 1455.45 1252.59 1454.04 Q1250.72 1452.6 1247.2 1452.6 Q1245.28 1452.6 1243.08 1453.02 Q1240.88 1453.44 1238.24 1454.31 L1238.24 1450.15 Q1240.9 1449.41 1243.22 1449.04 Q1245.56 1448.67 1247.62 1448.67 Q1252.94 1448.67 1256.04 1451.1 Q1259.14 1453.5 1259.14 1457.63 Q1259.14 1460.5 1257.5 1462.49 Q1255.86 1464.45 1252.83 1465.22 Z" fill="#ffffff" fill-rule="evenodd" fill-opacity="1" /><path clip-path="url(#clip720)" d="M 0 0 M1265.02 1477.97 L1269.91 1477.97 L1269.91 1483.85 L1265.02 1483.85 L1265.02 1477.97 Z" fill="#ffffff" fill-rule="evenodd" fill-opacity="1" /><path clip-path="url(#clip720)" d="M 0 0 M1273.8 1449.29 L1296.02 1449.29 L1296.02 1451.28 L1283.47 1483.85 L1278.59 1483.85 L1290.39 1453.23 L1273.8 1453.23 L1273.8 1449.29 Z" fill="#ffffff" fill-rule="evenodd" fill-opacity="1" /><path clip-path="url(#clip720)" d="M 0 0 M1378.23 1453.37 L1366.42 1471.81 L1378.23 1471.81 L1378.23 1453.37 M1377 1449.29 L1382.88 1449.29 L1382.88 1471.81 L1387.81 1471.81 L1387.81 1475.7 L1382.88 1475.7 L1382.88 1483.85 L1378.23 1483.85 L1378.23 1475.7 L1362.63 1475.7 L1362.63 1471.19 L1377 1449.29 Z" fill="#ffffff" fill-rule="evenodd" fill-opacity="1" /><path clip-path="url(#clip720)" d="M 0 0 M1392.88 1477.97 L1397.77 1477.97 L1397.77 1483.85 L1392.88 1483.85 L1392.88 1477.97 Z" fill="#ffffff" fill-rule="evenodd" fill-opacity="1" /><path clip-path="url(#clip720)" d="M 0 0 M1406.86 1479.92 L1423.18 1479.92 L1423.18 1483.85 L1401.24 1483.85 L1401.24 1479.92 Q1403.9 1477.16 1408.48 1472.53 Q1413.09 1467.88 1414.27 1466.54 Q1416.52 1464.01 1417.4 1462.28 Q1418.3 1460.52 1418.3 1458.83 Q1418.3 1456.07 1416.35 1454.34 Q1414.43 1452.6 1411.33 1452.6 Q1409.13 1452.6 1406.68 1453.37 Q1404.25 1454.13 1401.47 1455.68 L1401.47 1450.96 Q1404.29 1449.82 1406.75 1449.25 Q1409.2 1448.67 1411.24 1448.67 Q1416.61 1448.67 1419.8 1451.35 Q1423 1454.04 1423 1458.53 Q1423 1460.66 1422.19 1462.58 Q1421.4 1464.48 1419.29 1467.07 Q1418.72 1467.74 1415.61 1470.96 Q1412.51 1474.15 1406.86 1479.92 Z" fill="#ffffff" fill-rule="evenodd" fill-opacity="1" /><path clip-path="url(#clip720)" d="M 0 0 M1504.18 1453.37 L1492.37 1471.81 L1504.18 1471.81 L1504.18 1453.37 M1502.95 1449.29 L1508.83 1449.29 L1508.83 1471.81 L1513.76 1471.81 L1513.76 1475.7 L1508.83 1475.7 L1508.83 1483.85 L1504.18 1483.85 L1504.18 1475.7 L1488.58 1475.7 L1488.58 1471.19 L1502.95 1449.29 Z" fill="#ffffff" fill-rule="evenodd" fill-opacity="1" /><path clip-path="url(#clip720)" d="M 0 0 M1518.83 1477.97 L1523.72 1477.97 L1523.72 1483.85 L1518.83 1483.85 L1518.83 1477.97 Z" fill="#ffffff" fill-rule="evenodd" fill-opacity="1" /><path clip-path="url(#clip720)" d="M 0 0 M1527.6 1449.29 L1549.83 1449.29 L1549.83 1451.28 L1537.28 1483.85 L1532.4 1483.85 L1544.2 1453.23 L1527.6 1453.23 L1527.6 1449.29 Z" fill="#ffffff" fill-rule="evenodd" fill-opacity="1" /><path clip-path="url(#clip720)" d="M 0 0 M1618.09 1449.29 L1636.45 1449.29 L1636.45 1453.23 L1622.37 1453.23 L1622.37 1461.7 Q1623.39 1461.35 1624.41 1461.19 Q1625.43 1461 1626.45 1461 Q1632.23 1461 1635.61 1464.18 Q1638.99 1467.35 1638.99 1472.76 Q1638.99 1478.34 1635.52 1481.44 Q1632.05 1484.52 1625.73 1484.52 Q1623.55 1484.52 1621.29 1484.15 Q1619.04 1483.78 1616.63 1483.04 L1616.63 1478.34 Q1618.72 1479.48 1620.94 1480.03 Q1623.16 1480.59 1625.64 1480.59 Q1629.64 1480.59 1631.98 1478.48 Q1634.32 1476.38 1634.32 1472.76 Q1634.32 1469.15 1631.98 1467.05 Q1629.64 1464.94 1625.64 1464.94 Q1623.76 1464.94 1621.89 1465.36 Q1620.04 1465.77 1618.09 1466.65 L1618.09 1449.29 Z" fill="#ffffff" fill-rule="evenodd" fill-opacity="1" /><path clip-path="url(#clip720)" d="M 0 0 M1644.06 1477.97 L1648.95 1477.97 L1648.95 1483.85 L1644.06 1483.85 L1644.06 1477.97 Z" fill="#ffffff" fill-rule="evenodd" fill-opacity="1" /><path clip-path="url(#clip720)" d="M 0 0 M1658.04 1479.92 L1674.36 1479.92 L1674.36 1483.85 L1652.42 1483.85 L1652.42 1479.92 Q1655.08 1477.16 1659.66 1472.53 Q1664.27 1467.88 1665.45 1466.54 Q1667.7 1464.01 1668.58 1462.28 Q1669.48 1460.52 1669.48 1458.83 Q1669.48 1456.07 1667.53 1454.34 Q1665.61 1452.6 1662.51 1452.6 Q1660.31 1452.6 1657.86 1453.37 Q1655.43 1454.13 1652.65 1455.68 L1652.65 1450.96 Q1655.47 1449.82 1657.93 1449.25 Q1660.38 1448.67 1662.42 1448.67 Q1667.79 1448.67 1670.98 1451.35 Q1674.18 1454.04 1674.18 1458.53 Q1674.18 1460.66 1673.37 1462.58 Q1672.58 1464.48 1670.47 1467.07 Q1669.9 1467.74 1666.79 1470.96 Q1663.69 1474.15 1658.04 1479.92 Z" fill="#ffffff" fill-rule="evenodd" fill-opacity="1" /><path clip-path="url(#clip720)" d="M 0 0 M1744.04 1449.29 L1762.4 1449.29 L1762.4 1453.23 L1748.32 1453.23 L1748.32 1461.7 Q1749.34 1461.35 1750.36 1461.19 Q1751.38 1461 1752.4 1461 Q1758.18 1461 1761.56 1464.18 Q1764.94 1467.35 1764.94 1472.76 Q1764.94 1478.34 1761.47 1481.44 Q1758 1484.52 1751.68 1484.52 Q1749.5 1484.52 1747.23 1484.15 Q1744.99 1483.78 1742.58 1483.04 L1742.58 1478.34 Q1744.66 1479.48 1746.89 1480.03 Q1749.11 1480.59 1751.59 1480.59 Q1755.59 1480.59 1757.93 1478.48 Q1760.27 1476.38 1760.27 1472.76 Q1760.27 1469.15 1757.93 1467.05 Q1755.59 1464.94 1751.59 1464.94 Q1749.71 1464.94 1747.84 1465.36 Q1745.98 1465.77 1744.04 1466.65 L1744.04 1449.29 Z" fill="#ffffff" fill-rule="evenodd" fill-opacity="1" /><path clip-path="url(#clip720)" d="M 0 0 M1770.01 1477.97 L1774.9 1477.97 L1774.9 1483.85 L1770.01 1483.85 L1770.01 1477.97 Z" fill="#ffffff" fill-rule="evenodd" fill-opacity="1" /><path clip-path="url(#clip720)" d="M 0 0 M1778.78 1449.29 L1801.01 1449.29 L1801.01 1451.28 L1788.46 1483.85 L1783.58 1483.85 L1795.38 1453.23 L1778.78 1453.23 L1778.78 1449.29 Z" fill="#ffffff" fill-rule="evenodd" fill-opacity="1" /><path clip-path="url(#clip720)" d="M 0 0 M1880.81 1464.71 Q1877.66 1464.71 1875.81 1466.86 Q1873.98 1469.01 1873.98 1472.76 Q1873.98 1476.49 1875.81 1478.67 Q1877.66 1480.82 1880.81 1480.82 Q1883.96 1480.82 1885.79 1478.67 Q1887.64 1476.49 1887.64 1472.76 Q1887.64 1469.01 1885.79 1466.86 Q1883.96 1464.71 1880.81 1464.71 M1890.09 1450.06 L1890.09 1454.31 Q1888.33 1453.48 1886.53 1453.04 Q1884.75 1452.6 1882.99 1452.6 Q1878.36 1452.6 1875.9 1455.73 Q1873.47 1458.85 1873.12 1465.17 Q1874.49 1463.16 1876.55 1462.09 Q1878.61 1461 1881.09 1461 Q1886.3 1461 1889.31 1464.18 Q1892.34 1467.32 1892.34 1472.76 Q1892.34 1478.09 1889.19 1481.31 Q1886.04 1484.52 1880.81 1484.52 Q1874.81 1484.52 1871.64 1479.94 Q1868.47 1475.33 1868.47 1466.61 Q1868.47 1458.41 1872.36 1453.55 Q1876.25 1448.67 1882.8 1448.67 Q1884.56 1448.67 1886.34 1449.01 Q1888.15 1449.36 1890.09 1450.06 Z" fill="#ffffff" fill-rule="evenodd" fill-opacity="1" /><path clip-path="url(#clip720)" d="M 0 0 M1897.41 1477.97 L1902.29 1477.97 L1902.29 1483.85 L1897.41 1483.85 L1897.41 1477.97 Z" fill="#ffffff" fill-rule="evenodd" fill-opacity="1" /><path clip-path="url(#clip720)" d="M 0 0 M1911.39 1479.92 L1927.71 1479.92 L1927.71 1483.85 L1905.76 1483.85 L1905.76 1479.92 Q1908.43 1477.16 1913.01 1472.53 Q1917.62 1467.88 1918.8 1466.54 Q1921.04 1464.01 1921.92 1462.28 Q1922.82 1460.52 1922.82 1458.83 Q1922.82 1456.07 1920.88 1454.34 Q1918.96 1452.6 1915.86 1452.6 Q1913.66 1452.6 1911.2 1453.37 Q1908.77 1454.13 1906 1455.68 L1906 1450.96 Q1908.82 1449.82 1911.27 1449.25 Q1913.73 1448.67 1915.76 1448.67 Q1921.13 1448.67 1924.33 1451.35 Q1927.52 1454.04 1927.52 1458.53 Q1927.52 1460.66 1926.71 1462.58 Q1925.93 1464.48 1923.82 1467.07 Q1923.24 1467.74 1920.14 1470.96 Q1917.04 1474.15 1911.39 1479.92 Z" fill="#ffffff" fill-rule="evenodd" fill-opacity="1" /><path clip-path="url(#clip720)" d="M 0 0 M1278.3 1522.27 L1278.3 1532.4 L1290.36 1532.4 L1290.36 1536.95 L1278.3 1536.95 L1278.3 1556.3 Q1278.3 1560.66 1279.48 1561.9 Q1280.69 1563.14 1284.35 1563.14 L1290.36 1563.14 L1290.36 1568.04 L1284.35 1568.04 Q1277.57 1568.04 1274.99 1565.53 Q1272.41 1562.98 1272.41 1556.3 L1272.41 1536.95 L1268.12 1536.95 L1268.12 1532.4 L1272.41 1532.4 L1272.41 1522.27 L1278.3 1522.27 Z" fill="#ffffff" fill-rule="evenodd" fill-opacity="1" /><polyline clip-path="url(#clip722)" style="stroke:#ffffff; stroke-width:2; stroke-opacity:0.5; fill:none" points="
  205.723,1423.18 2352.76,1423.18 
  "/>
<polyline clip-path="url(#clip722)" style="stroke:#ffffff; stroke-width:2; stroke-opacity:0.5; fill:none" points="
  205.723,1226.62 2352.76,1226.62 
  "/>
<polyline clip-path="url(#clip722)" style="stroke:#ffffff; stroke-width:2; stroke-opacity:0.5; fill:none" points="
  205.723,1030.06 2352.76,1030.06 
  "/>
<polyline clip-path="url(#clip722)" style="stroke:#ffffff; stroke-width:2; stroke-opacity:0.5; fill:none" points="
  205.723,833.493 2352.76,833.493 
  "/>
<polyline clip-path="url(#clip722)" style="stroke:#ffffff; stroke-width:2; stroke-opacity:0.5; fill:none" points="
  205.723,636.931 2352.76,636.931 
  "/>
<polyline clip-path="url(#clip722)" style="stroke:#ffffff; stroke-width:2; stroke-opacity:0.5; fill:none" points="
  205.723,440.369 2352.76,440.369 
  "/>
<polyline clip-path="url(#clip722)" style="stroke:#ffffff; stroke-width:2; stroke-opacity:0.5; fill:none" points="
  205.723,243.806 2352.76,243.806 
  "/>
<polyline clip-path="url(#clip722)" style="stroke:#ffffff; stroke-width:2; stroke-opacity:0.5; fill:none" points="
  205.723,47.2441 2352.76,47.2441 
  "/>
<polyline clip-path="url(#clip720)" style="stroke:#ffffff; stroke-width:4; stroke-opacity:1; fill:none" points="
  205.723,1423.18 205.723,47.2441 
  "/>
<polyline clip-path="url(#clip720)" style="stroke:#ffffff; stroke-width:4; stroke-opacity:1; fill:none" points="
  205.723,1423.18 231.487,1423.18 
  "/>
<polyline clip-path="url(#clip720)" style="stroke:#ffffff; stroke-width:4; stroke-opacity:1; fill:none" points="
  205.723,1226.62 231.487,1226.62 
  "/>
<polyline clip-path="url(#clip720)" style="stroke:#ffffff; stroke-width:4; stroke-opacity:1; fill:none" points="
  205.723,1030.06 231.487,1030.06 
  "/>
<polyline clip-path="url(#clip720)" style="stroke:#ffffff; stroke-width:4; stroke-opacity:1; fill:none" points="
  205.723,833.493 231.487,833.493 
  "/>
<polyline clip-path="url(#clip720)" style="stroke:#ffffff; stroke-width:4; stroke-opacity:1; fill:none" points="
  205.723,636.931 231.487,636.931 
  "/>
<polyline clip-path="url(#clip720)" style="stroke:#ffffff; stroke-width:4; stroke-opacity:1; fill:none" points="
  205.723,440.369 231.487,440.369 
  "/>
<polyline clip-path="url(#clip720)" style="stroke:#ffffff; stroke-width:4; stroke-opacity:1; fill:none" points="
  205.723,243.806 231.487,243.806 
  "/>
<polyline clip-path="url(#clip720)" style="stroke:#ffffff; stroke-width:4; stroke-opacity:1; fill:none" points="
  205.723,47.2441 231.487,47.2441 
  "/>
<path clip-path="url(#clip720)" d="M 0 0 M114.631 1423.63 L144.306 1423.63 L144.306 1427.57 L114.631 1427.57 L114.631 1423.63 Z" fill="#ffffff" fill-rule="evenodd" fill-opacity="1" /><path clip-path="url(#clip720)" d="M 0 0 M153.403 1436.52 L169.723 1436.52 L169.723 1440.46 L147.778 1440.46 L147.778 1436.52 Q150.441 1433.77 155.024 1429.14 Q159.63 1424.49 160.811 1423.15 Q163.056 1420.62 163.936 1418.89 Q164.839 1417.13 164.839 1415.44 Q164.839 1412.68 162.894 1410.95 Q160.973 1409.21 157.871 1409.21 Q155.672 1409.21 153.218 1409.97 Q150.788 1410.74 148.01 1412.29 L148.01 1407.57 Q150.834 1406.43 153.288 1405.85 Q155.741 1405.27 157.778 1405.27 Q163.149 1405.27 166.343 1407.96 Q169.538 1410.65 169.538 1415.14 Q169.538 1417.27 168.727 1419.19 Q167.94 1421.08 165.834 1423.68 Q165.255 1424.35 162.153 1427.57 Q159.052 1430.76 153.403 1436.52 Z" fill="#ffffff" fill-rule="evenodd" fill-opacity="1" /><path clip-path="url(#clip720)" d="M 0 0 M114.26 1227.07 L143.936 1227.07 L143.936 1231 L114.26 1231 L114.26 1227.07 Z" fill="#ffffff" fill-rule="evenodd" fill-opacity="1" /><path clip-path="url(#clip720)" d="M 0 0 M149.816 1239.96 L157.454 1239.96 L157.454 1213.6 L149.144 1215.26 L149.144 1211 L157.408 1209.34 L162.084 1209.34 L162.084 1239.96 L169.723 1239.96 L169.723 1243.9 L149.816 1243.9 L149.816 1239.96 Z" fill="#ffffff" fill-rule="evenodd" fill-opacity="1" /><path clip-path="url(#clip720)" d="M 0 0 M157.778 1015.85 Q154.167 1015.85 152.339 1019.42 Q150.533 1022.96 150.533 1030.09 Q150.533 1037.2 152.339 1040.76 Q154.167 1044.3 157.778 1044.3 Q161.413 1044.3 163.218 1040.76 Q165.047 1037.2 165.047 1030.09 Q165.047 1022.96 163.218 1019.42 Q161.413 1015.85 157.778 1015.85 M157.778 1012.15 Q163.589 1012.15 166.644 1016.76 Q169.723 1021.34 169.723 1030.09 Q169.723 1038.82 166.644 1043.42 Q163.589 1048.01 157.778 1048.01 Q151.968 1048.01 148.89 1043.42 Q145.834 1038.82 145.834 1030.09 Q145.834 1021.34 148.89 1016.76 Q151.968 1012.15 157.778 1012.15 Z" fill="#ffffff" fill-rule="evenodd" fill-opacity="1" /><path clip-path="url(#clip720)" d="M 0 0 M149.816 846.838 L157.454 846.838 L157.454 820.472 L149.144 822.139 L149.144 817.88 L157.408 816.213 L162.084 816.213 L162.084 846.838 L169.723 846.838 L169.723 850.773 L149.816 850.773 L149.816 846.838 Z" fill="#ffffff" fill-rule="evenodd" fill-opacity="1" /><path clip-path="url(#clip720)" d="M 0 0 M153.403 650.276 L169.723 650.276 L169.723 654.211 L147.778 654.211 L147.778 650.276 Q150.441 647.521 155.024 642.891 Q159.63 638.239 160.811 636.896 Q163.056 634.373 163.936 632.637 Q164.839 630.878 164.839 629.188 Q164.839 626.433 162.894 624.697 Q160.973 622.961 157.871 622.961 Q155.672 622.961 153.218 623.725 Q150.788 624.489 148.01 626.04 L148.01 621.318 Q150.834 620.183 153.288 619.605 Q155.741 619.026 157.778 619.026 Q163.149 619.026 166.343 621.711 Q169.538 624.396 169.538 628.887 Q169.538 631.017 168.727 632.938 Q167.94 634.836 165.834 637.429 Q165.255 638.1 162.153 641.317 Q159.052 644.512 153.403 650.276 Z" fill="#ffffff" fill-rule="evenodd" fill-opacity="1" /><path clip-path="url(#clip720)" d="M 0 0 M162.593 439.014 Q165.95 439.732 167.825 442.001 Q169.723 444.269 169.723 447.602 Q169.723 452.718 166.204 455.519 Q162.686 458.32 156.204 458.32 Q154.028 458.32 151.714 457.88 Q149.422 457.463 146.968 456.607 L146.968 452.093 Q148.913 453.227 151.228 453.806 Q153.542 454.385 156.065 454.385 Q160.464 454.385 162.755 452.649 Q165.07 450.913 165.07 447.602 Q165.07 444.547 162.917 442.834 Q160.788 441.098 156.968 441.098 L152.941 441.098 L152.941 437.255 L157.153 437.255 Q160.603 437.255 162.431 435.889 Q164.26 434.501 164.26 431.908 Q164.26 429.246 162.362 427.834 Q160.487 426.399 156.968 426.399 Q155.047 426.399 152.848 426.815 Q150.649 427.232 148.01 428.112 L148.01 423.945 Q150.672 423.204 152.987 422.834 Q155.325 422.464 157.385 422.464 Q162.709 422.464 165.811 424.894 Q168.913 427.302 168.913 431.422 Q168.913 434.292 167.269 436.283 Q165.626 438.251 162.593 439.014 Z" fill="#ffffff" fill-rule="evenodd" fill-opacity="1" /><path clip-path="url(#clip720)" d="M 0 0 M160.14 230.6 L148.334 249.049 L160.14 249.049 L160.14 230.6 M158.913 226.526 L164.792 226.526 L164.792 249.049 L169.723 249.049 L169.723 252.938 L164.792 252.938 L164.792 261.086 L160.14 261.086 L160.14 252.938 L144.538 252.938 L144.538 248.424 L158.913 226.526 Z" fill="#ffffff" fill-rule="evenodd" fill-opacity="1" /><path clip-path="url(#clip720)" d="M 0 0 M148.82 29.9641 L167.177 29.9641 L167.177 33.8993 L153.103 33.8993 L153.103 42.3714 Q154.121 42.0242 155.14 41.8622 Q156.158 41.677 157.177 41.677 Q162.964 41.677 166.343 44.8483 Q169.723 48.0196 169.723 53.4362 Q169.723 59.0149 166.251 62.1167 Q162.778 65.1954 156.459 65.1954 Q154.283 65.1954 152.015 64.825 Q149.769 64.4547 147.362 63.7139 L147.362 59.0149 Q149.445 60.1491 151.667 60.7047 Q153.89 61.2602 156.366 61.2602 Q160.371 61.2602 162.709 59.1538 Q165.047 57.0473 165.047 53.4362 Q165.047 49.8251 162.709 47.7186 Q160.371 45.6122 156.366 45.6122 Q154.491 45.6122 152.616 46.0288 Q150.765 46.4455 148.82 47.3251 L148.82 29.9641 Z" fill="#ffffff" fill-rule="evenodd" fill-opacity="1" /><path clip-path="url(#clip720)" d="M 0 0 M28.3562 750.617 L45.7028 763.508 L64.0042 749.949 L64.0042 756.855 L49.9996 767.231 L64.0042 777.608 L64.0042 784.514 L45.3526 770.669 L28.3562 783.337 L28.3562 776.43 L41.0558 766.977 L28.3562 757.524 L28.3562 750.617 Z" fill="#ffffff" fill-rule="evenodd" fill-opacity="1" /><path clip-path="url(#clip720)" d="M 0 0 M14.5426 729.737 Q21.8632 734.002 29.0246 736.071 Q36.186 738.14 43.5384 738.14 Q50.8908 738.14 58.1159 736.071 Q65.3091 733.971 72.5979 729.737 L72.5979 734.83 Q65.1182 739.604 57.8931 741.991 Q50.668 744.347 43.5384 744.347 Q36.4406 744.347 29.2474 741.991 Q22.0542 739.636 14.5426 734.83 L14.5426 729.737 Z" fill="#ffffff" fill-rule="evenodd" fill-opacity="1" /><path clip-path="url(#clip720)" d="M 0 0 M18.2347 717.802 L28.3562 717.802 L28.3562 705.739 L32.9077 705.739 L32.9077 717.802 L52.2594 717.802 Q56.6199 717.802 57.8613 716.624 Q59.1026 715.415 59.1026 711.754 L59.1026 705.739 L64.0042 705.739 L64.0042 711.754 Q64.0042 718.534 61.4897 721.112 Q58.9434 723.69 52.2594 723.69 L32.9077 723.69 L32.9077 727.987 L28.3562 727.987 L28.3562 723.69 L18.2347 723.69 L18.2347 717.802 Z" fill="#ffffff" fill-rule="evenodd" fill-opacity="1" /><path clip-path="url(#clip720)" d="M 0 0 M14.5426 700.519 L14.5426 695.426 Q22.0542 690.652 29.2474 688.297 Q36.4406 685.91 43.5384 685.91 Q50.668 685.91 57.8931 688.297 Q65.1182 690.652 72.5979 695.426 L72.5979 700.519 Q65.3091 696.286 58.1159 694.217 Q50.8908 692.116 43.5384 692.116 Q36.186 692.116 29.0246 694.217 Q21.8632 696.286 14.5426 700.519 Z" fill="#ffffff" fill-rule="evenodd" fill-opacity="1" /><polyline clip-path="url(#clip722)" style="stroke:#009af9; stroke-width:4; stroke-opacity:1; fill:none" points="
  584.611,1024.71 587.137,1024.66 589.663,1024.6 592.189,1024.55 594.715,1024.49 597.241,1024.44 599.767,1024.38 602.292,1024.32 604.818,1024.27 607.344,1024.21 
  609.87,1024.15 612.396,1024.09 614.922,1024.03 617.448,1023.97 619.974,1023.91 622.5,1023.85 625.026,1023.79 627.552,1023.72 630.078,1023.66 632.604,1023.59 
  635.129,1023.53 637.655,1023.46 640.181,1023.4 642.707,1023.33 645.233,1023.26 647.759,1023.19 650.285,1023.13 652.811,1023.06 655.337,1022.99 657.863,1022.91 
  660.389,1022.84 662.915,1022.77 665.44,1022.7 667.966,1022.62 670.492,1022.55 673.018,1022.47 675.544,1022.4 678.07,1022.32 680.596,1022.24 683.122,1022.16 
  685.648,1022.08 688.174,1022 690.7,1021.92 693.226,1021.84 695.752,1021.76 698.277,1021.68 700.803,1021.59 703.329,1021.51 705.855,1021.42 708.381,1021.33 
  710.907,1021.25 713.433,1021.16 715.959,1021.07 718.485,1020.98 721.011,1020.89 723.537,1020.79 726.063,1020.7 728.589,1020.61 731.114,1020.51 733.64,1020.42 
  736.166,1020.32 738.692,1020.22 741.218,1020.12 743.744,1020.02 746.27,1019.92 748.796,1019.82 751.322,1019.72 753.848,1019.61 756.374,1019.51 758.9,1019.4 
  761.426,1019.3 763.951,1019.19 766.477,1019.08 769.003,1018.97 771.529,1018.86 774.055,1018.74 776.581,1018.63 779.107,1018.52 781.633,1018.4 784.159,1018.28 
  786.685,1018.16 789.211,1018.04 791.737,1017.92 794.262,1017.8 796.788,1017.68 799.314,1017.55 801.84,1017.43 804.366,1017.3 806.892,1017.17 809.418,1017.04 
  811.944,1016.91 814.47,1016.78 816.996,1016.65 819.522,1016.51 822.048,1016.38 824.574,1016.24 827.099,1016.1 829.625,1015.96 832.151,1015.82 834.677,1015.68 
  837.203,1015.53 839.729,1015.39 842.255,1015.24 844.781,1015.09 847.307,1014.94 849.833,1014.79 852.359,1014.63 854.885,1014.48 857.411,1014.32 859.936,1014.16 
  862.462,1014 864.988,1013.84 867.514,1013.68 870.04,1013.51 872.566,1013.35 875.092,1013.18 877.618,1013.01 880.144,1012.84 882.67,1012.67 885.196,1012.49 
  887.722,1012.32 890.247,1012.14 892.773,1011.96 895.299,1011.78 897.825,1011.59 900.351,1011.41 902.877,1011.22 905.403,1011.03 907.929,1010.84 910.455,1010.64 
  912.981,1010.45 915.507,1010.25 918.033,1010.05 920.559,1009.85 923.084,1009.65 925.61,1009.44 928.136,1009.24 930.662,1009.03 933.188,1008.82 935.714,1008.6 
  938.24,1008.39 940.766,1008.17 943.292,1007.95 945.818,1007.73 948.344,1007.5 950.87,1007.28 953.396,1007.05 955.921,1006.82 958.447,1006.58 960.973,1006.35 
  963.499,1006.11 966.025,1005.87 968.551,1005.63 971.077,1005.38 973.603,1005.13 976.129,1004.88 978.655,1004.63 981.181,1004.37 983.707,1004.11 986.232,1003.85 
  988.758,1003.59 991.284,1003.32 993.81,1003.06 996.336,1002.78 998.862,1002.51 1001.39,1002.23 1003.91,1001.95 1006.44,1001.67 1008.97,1001.39 1011.49,1001.1 
  1014.02,1000.81 1016.54,1000.51 1019.07,1000.22 1021.6,999.917 1024.12,999.614 1026.65,999.308 1029.17,998.999 1031.7,998.687 1034.23,998.371 1036.75,998.053 
  1039.28,997.731 1041.8,997.407 1044.33,997.078 1046.85,996.747 1049.38,996.412 1051.91,996.074 1054.43,995.733 1056.96,995.388 1059.48,995.039 1062.01,994.687 
  1064.54,994.332 1067.06,993.973 1069.59,993.61 1072.11,993.244 1074.64,992.874 1077.17,992.5 1079.69,992.123 1082.22,991.742 1084.74,991.357 1087.27,990.968 
  1089.8,990.575 1092.32,990.178 1094.85,989.777 1097.37,989.372 1099.9,988.964 1102.42,988.551 1104.95,988.133 1107.48,987.712 1110,987.287 1112.53,986.857 
  1115.05,986.423 1117.58,985.984 1120.11,985.541 1122.63,985.094 1125.16,984.642 1127.68,984.185 1130.21,983.724 1132.74,983.259 1135.26,982.789 1137.79,982.313 
  1140.31,981.834 1142.84,981.349 1145.37,980.86 1147.89,980.365 1150.42,979.866 1152.94,979.361 1155.47,978.852 1158,978.337 1160.52,977.817 1163.05,977.292 
  1165.57,976.762 1168.1,976.227 1170.62,975.686 1173.15,975.139 1175.68,974.587 1178.2,974.03 1180.73,973.467 1183.25,972.898 1185.78,972.323 1188.31,971.743 
  1190.83,971.157 1193.36,970.565 1195.88,969.967 1198.41,969.364 1200.94,968.754 1203.46,968.137 1205.99,967.515 1208.51,966.887 1211.04,966.252 1213.57,965.611 
  1216.09,964.963 1218.62,964.309 1221.14,963.648 1223.67,962.981 1226.2,962.306 1228.72,961.626 1231.25,960.938 1233.77,960.243 1236.3,959.542 1238.82,958.833 
  1241.35,958.117 1243.88,957.394 1246.4,956.664 1248.93,955.926 1251.45,955.181 1253.98,954.429 1256.51,953.669 1259.03,952.901 1261.56,952.125 1264.08,951.342 
  1266.61,950.551 1269.14,949.752 1271.66,948.945 1274.19,948.13 1276.71,947.307 1279.24,946.475 1281.77,945.635 1284.29,944.787 1286.82,943.93 1289.34,943.064 
  1291.87,942.19 1294.39,941.307 1296.92,940.415 1299.45,939.514 1301.97,938.604 1304.5,937.685 1307.02,936.756 1309.55,935.819 1312.08,934.872 1314.6,933.915 
  1317.13,932.949 1319.65,931.973 1322.18,930.987 1324.71,929.991 1327.23,928.986 1329.76,927.97 1332.28,926.944 1334.81,925.908 1337.34,924.861 1339.86,923.804 
  1342.39,922.736 1344.91,921.657 1347.44,920.568 1349.97,919.468 1352.49,918.356 1355.02,917.234 1357.54,916.1 1360.07,914.954 1362.59,913.798 1365.12,912.629 
  1367.65,911.449 1370.17,910.257 1372.7,909.053 1375.22,907.837 1377.75,906.609 1380.28,905.368 1382.8,904.115 1385.33,902.849 1387.85,901.571 1390.38,900.279 
  1392.91,898.975 1395.43,897.658 1397.96,896.327 1400.48,894.983 1403.01,893.626 1405.54,892.255 1408.06,890.87 1410.59,889.471 1413.11,888.058 1415.64,886.631 
  1418.17,885.189 1420.69,883.733 1423.22,882.263 1425.74,880.778 1428.27,879.277 1430.79,877.762 1433.32,876.231 1435.85,874.685 1438.37,873.124 1440.9,871.547 
  1443.42,869.954 1445.95,868.345 1448.48,866.719 1451,865.078 1453.53,863.42 1456.05,861.745 1458.58,860.054 1461.11,858.345 1463.63,856.619 1466.16,854.876 
  1468.68,853.116 1471.21,851.337 1473.74,849.541 1476.26,847.727 1478.79,845.895 1481.31,844.044 1483.84,842.174 1486.36,840.286 1488.89,838.379 1491.42,836.452 
  1493.94,834.507 1496.47,832.541 1498.99,830.556 1501.52,828.551 1504.05,826.526 1506.57,824.481 1509.1,822.415 1511.62,820.328 1514.15,818.22 1516.68,816.091 
  1519.2,813.941 1521.73,811.769 1524.25,809.575 1526.78,807.359 1529.31,805.121 1531.83,802.86 1534.36,800.577 1536.88,798.271 1539.41,795.941 1541.94,793.588 
  1544.46,791.212 1546.99,788.811 1549.51,786.387 1552.04,783.938 1554.56,781.464 1557.09,778.966 1559.62,776.442 1562.14,773.894 1564.67,771.319 1567.19,768.719 
  1569.72,766.092 1572.25,763.439 1574.77,760.76 1577.3,758.053 1579.82,755.32 1582.35,752.559 1584.88,749.77 1587.4,746.953 1589.93,744.108 1592.45,741.234 
  1594.98,738.331 1597.51,735.399 1600.03,732.438 1602.56,729.447 1605.08,726.426 1607.61,723.374 1610.14,720.292 1612.66,717.179 1615.19,714.034 1617.71,710.858 
  1620.24,707.65 1622.76,704.41 1625.29,701.137 1627.82,697.831 1630.34,694.493 1632.87,691.12 1635.39,687.714 1637.92,684.273 1640.45,680.798 1642.97,677.288 
  1645.5,673.743 1648.02,670.162 1650.55,666.545 1653.08,662.891 1655.6,659.201 1658.13,655.474 1660.65,651.709 1663.18,647.907 1665.71,644.066 1668.23,640.187 
  1670.76,636.269 1673.28,632.311 1675.81,628.314 1678.33,624.276 1680.86,620.198 1683.39,616.079 1685.91,611.918 1688.44,607.716 1690.96,603.471 1693.49,599.184 
  1696.02,594.854 1698.54,590.48 1701.07,586.062 1703.59,581.6 1706.12,577.093 1708.65,572.541 1711.17,567.943 1713.7,563.298 1716.22,558.607 1718.75,553.869 
  1721.28,549.083 1723.8,544.25 1726.33,539.367 1728.85,534.436 1731.38,529.455 1733.91,524.423 1736.43,519.342 1738.96,514.209 1741.48,509.025 1744.01,503.788 
  1746.53,498.499 1749.06,493.157 1751.59,487.761 1754.11,482.311 1756.64,476.806 1759.16,471.246 1761.69,465.63 1764.22,459.957 1766.74,454.227 1769.27,448.44 
  1771.79,442.595 1774.32,436.691 1776.85,430.727 1779.37,424.704 1781.9,418.62 1784.42,412.475 1786.95,406.268 1789.48,399.999 1792,393.667 1794.53,387.271 
  1797.05,380.811 1799.58,374.286 1802.11,367.695 1804.63,361.039 1807.16,354.315 1809.68,347.524 1812.21,340.664 1814.73,333.736 1817.26,326.737 1819.79,319.669 
  1822.31,312.529 1824.84,305.318 1827.36,298.035 1829.89,290.678 1832.42,283.247 1834.94,275.741 1837.47,268.16 1839.99,260.503 1842.52,252.769 1845.05,244.957 
  1847.57,237.067 1850.1,229.097 1852.62,221.047 1855.15,212.917 1857.68,204.704 1860.2,196.409 1862.73,188.031 1865.25,179.568 1867.78,171.021 1870.3,162.387 
  1872.83,153.667 1875.36,144.859 1877.88,135.963 1880.41,126.977 1882.93,117.901 1885.46,108.734 1887.99,99.4745 1890.51,90.122 1893.04,80.6755 1895.56,71.1341 
  1898.09,61.4967 1900.62,51.7626 1903.14,41.9306 1905.67,31.9997 1908.19,21.9691 1910.72,11.8377 1913.25,1.60442 1915.77,-8.73168 1918.3,-19.1717 1920.82,-29.7166 
  1923.35,-40.3675 1925.88,-51.1254 1928.4,-61.9914 1930.93,-72.9667 1933.45,-84.0522 1935.98,-95.2492 1938.5,-106.559 1941.03,-117.982 1943.56,-129.52 1946.08,-141.174 
  1948.61,-152.945 1951.13,-164.834 1953.66,-176.843 1956.19,-188.973 1958.71,-201.224 1961.24,-213.599 1963.76,-226.097 1966.29,-238.722 1968.82,-251.473 1971.34,-264.353 
  1973.87,-277.362 1976.39,-290.502 1978.92,-303.774 1981.45,-317.179 1983.97,-330.719 1986.5,-344.395 1989.02,-358.208 1991.55,-372.16 1994.08,-386.253 1996.6,-400.487 
  1999.13,-414.864 2001.65,-429.386 2004.18,-444.054 2006.7,-458.869 2009.23,-473.833 2011.76,-488.947 2014.28,-504.213 2016.81,-519.633 2019.33,-535.207 2021.86,-550.939 
  2024.39,-566.828 2026.91,-582.877 2029.44,-599.087 2031.96,-615.46 2034.49,-631.998 2037.02,-648.702 2039.54,-665.574 2042.07,-682.615 2044.59,-699.828 2047.12,-717.213 
  2049.65,-734.773 2052.17,-752.51 2054.7,-770.425 2057.22,-788.521 2059.75,-806.798 2062.27,-825.258 2064.8,-843.904 2067.33,-862.738 2069.85,-881.761 2072.38,-900.975 
  2074.9,-920.382 2077.43,-939.984 2079.96,-959.784 2082.48,-979.782 2085.01,-999.981 2087.53,-1020.38 2090.06,-1040.99 2092.59,-1061.8 2095.11,-1082.83 2097.64,-1104.06 
  2100.16,-1125.51 
  "/>
<circle clip-path="url(#clip722)" cx="635.129" cy="1023.53" r="10" fill="#0000ff" fill-rule="evenodd" fill-opacity="1" stroke="#7f7f7f" stroke-opacity="1" stroke-width="3.2"/>
<circle clip-path="url(#clip722)" cx="761.426" cy="1019.3" r="10" fill="#0000ff" fill-rule="evenodd" fill-opacity="1" stroke="#7f7f7f" stroke-opacity="1" stroke-width="3.2"/>
<circle clip-path="url(#clip722)" cx="887.722" cy="1012.32" r="10" fill="#0000ff" fill-rule="evenodd" fill-opacity="1" stroke="#7f7f7f" stroke-opacity="1" stroke-width="3.2"/>
<circle clip-path="url(#clip722)" cx="1014.02" cy="1000.81" r="10" fill="#0000ff" fill-rule="evenodd" fill-opacity="1" stroke="#7f7f7f" stroke-opacity="1" stroke-width="3.2"/>
<circle clip-path="url(#clip722)" cx="1140.31" cy="981.834" r="10" fill="#0000ff" fill-rule="evenodd" fill-opacity="1" stroke="#7f7f7f" stroke-opacity="1" stroke-width="3.2"/>
<circle clip-path="url(#clip722)" cx="1266.61" cy="950.551" r="10" fill="#0000ff" fill-rule="evenodd" fill-opacity="1" stroke="#7f7f7f" stroke-opacity="1" stroke-width="3.2"/>
<circle clip-path="url(#clip722)" cx="1392.91" cy="898.975" r="10" fill="#0000ff" fill-rule="evenodd" fill-opacity="1" stroke="#7f7f7f" stroke-opacity="1" stroke-width="3.2"/>
<circle clip-path="url(#clip722)" cx="1519.2" cy="813.941" r="10" fill="#0000ff" fill-rule="evenodd" fill-opacity="1" stroke="#7f7f7f" stroke-opacity="1" stroke-width="3.2"/>
<circle clip-path="url(#clip722)" cx="1645.5" cy="673.743" r="10" fill="#0000ff" fill-rule="evenodd" fill-opacity="1" stroke="#7f7f7f" stroke-opacity="1" stroke-width="3.2"/>
<circle clip-path="url(#clip722)" cx="1771.79" cy="442.595" r="10" fill="#0000ff" fill-rule="evenodd" fill-opacity="1" stroke="#7f7f7f" stroke-opacity="1" stroke-width="3.2"/>
<circle clip-path="url(#clip722)" cx="1898.09" cy="61.4967" r="10" fill="#0000ff" fill-rule="evenodd" fill-opacity="1" stroke="#7f7f7f" stroke-opacity="1" stroke-width="3.2"/>
<circle clip-path="url(#clip722)" cx="635.129" cy="1024.71" r="10" fill="#ff0000" fill-rule="evenodd" fill-opacity="1" stroke="#cccccc" stroke-opacity="1" stroke-width="3.2"/>
<circle clip-path="url(#clip722)" cx="761.426" cy="1022.04" r="10" fill="#ff0000" fill-rule="evenodd" fill-opacity="1" stroke="#cccccc" stroke-opacity="1" stroke-width="3.2"/>
<circle clip-path="url(#clip722)" cx="887.722" cy="1018.03" r="10" fill="#ff0000" fill-rule="evenodd" fill-opacity="1" stroke="#cccccc" stroke-opacity="1" stroke-width="3.2"/>
<circle clip-path="url(#clip722)" cx="1014.02" cy="1012.02" r="10" fill="#ff0000" fill-rule="evenodd" fill-opacity="1" stroke="#cccccc" stroke-opacity="1" stroke-width="3.2"/>
<circle clip-path="url(#clip722)" cx="1140.31" cy="1003.01" r="10" fill="#ff0000" fill-rule="evenodd" fill-opacity="1" stroke="#cccccc" stroke-opacity="1" stroke-width="3.2"/>
<circle clip-path="url(#clip722)" cx="1266.61" cy="989.481" r="10" fill="#ff0000" fill-rule="evenodd" fill-opacity="1" stroke="#cccccc" stroke-opacity="1" stroke-width="3.2"/>
<circle clip-path="url(#clip722)" cx="1392.91" cy="969.194" r="10" fill="#ff0000" fill-rule="evenodd" fill-opacity="1" stroke="#cccccc" stroke-opacity="1" stroke-width="3.2"/>
<circle clip-path="url(#clip722)" cx="1519.2" cy="938.763" r="10" fill="#ff0000" fill-rule="evenodd" fill-opacity="1" stroke="#cccccc" stroke-opacity="1" stroke-width="3.2"/>
<circle clip-path="url(#clip722)" cx="1645.5" cy="893.117" r="10" fill="#ff0000" fill-rule="evenodd" fill-opacity="1" stroke="#cccccc" stroke-opacity="1" stroke-width="3.2"/>
<circle clip-path="url(#clip722)" cx="1771.79" cy="824.648" r="10" fill="#ff0000" fill-rule="evenodd" fill-opacity="1" stroke="#cccccc" stroke-opacity="1" stroke-width="3.2"/>
<circle clip-path="url(#clip722)" cx="1898.09" cy="721.944" r="10" fill="#ff0000" fill-rule="evenodd" fill-opacity="1" stroke="#cccccc" stroke-opacity="1" stroke-width="3.2"/>
<circle clip-path="url(#clip722)" cx="2024.39" cy="567.889" r="10" fill="#ff0000" fill-rule="evenodd" fill-opacity="1" stroke="#cccccc" stroke-opacity="1" stroke-width="3.2"/>
<path clip-path="url(#clip720)" d="
M705.94 274.549 L1326.95 274.549 L1326.95 93.1086 L705.94 93.1086  Z
  " fill="#333333" fill-rule="evenodd" fill-opacity="1"/>
<polyline clip-path="url(#clip720)" style="stroke:#ffffff; stroke-width:4; stroke-opacity:1; fill:none" points="
  705.94,274.549 1326.95,274.549 1326.95,93.1086 705.94,93.1086 705.94,274.549 
  "/>
<circle clip-path="url(#clip720)" cx="801.364" cy="153.589" r="23" fill="#0000ff" fill-rule="evenodd" fill-opacity="1" stroke="#7f7f7f" stroke-opacity="1" stroke-width="6.82667"/>
<path clip-path="url(#clip720)" d="M 0 0 M912.621 140.915 L906.278 158.114 L918.987 158.114 L912.621 140.915 M909.982 136.309 L915.283 136.309 L928.454 170.869 L923.593 170.869 L920.445 162.003 L904.866 162.003 L901.718 170.869 L896.788 170.869 L909.982 136.309 Z" fill="#ffffff" fill-rule="evenodd" fill-opacity="1" /><path clip-path="url(#clip720)" d="M 0 0 M954.473 155.221 L954.473 170.869 L950.213 170.869 L950.213 155.359 Q950.213 151.679 948.778 149.85 Q947.343 148.022 944.473 148.022 Q941.024 148.022 939.033 150.221 Q937.042 152.42 937.042 156.216 L937.042 170.869 L932.76 170.869 L932.76 144.943 L937.042 144.943 L937.042 148.971 Q938.57 146.633 940.63 145.475 Q942.713 144.318 945.422 144.318 Q949.889 144.318 952.181 147.096 Q954.473 149.85 954.473 155.221 Z" fill="#ffffff" fill-rule="evenodd" fill-opacity="1" /><path clip-path="url(#clip720)" d="M 0 0 M970.722 157.836 Q965.56 157.836 963.57 159.017 Q961.579 160.197 961.579 163.045 Q961.579 165.313 963.061 166.656 Q964.565 167.975 967.135 167.975 Q970.676 167.975 972.806 165.475 Q974.959 162.952 974.959 158.785 L974.959 157.836 L970.722 157.836 M979.218 156.077 L979.218 170.869 L974.959 170.869 L974.959 166.933 Q973.5 169.295 971.324 170.429 Q969.148 171.54 966 171.54 Q962.019 171.54 959.658 169.318 Q957.32 167.072 957.32 163.322 Q957.32 158.947 960.236 156.725 Q963.176 154.503 968.986 154.503 L974.959 154.503 L974.959 154.086 Q974.959 151.147 973.014 149.549 Q971.093 147.929 967.598 147.929 Q965.375 147.929 963.269 148.461 Q961.162 148.994 959.218 150.059 L959.218 146.123 Q961.556 145.221 963.755 144.781 Q965.954 144.318 968.037 144.318 Q973.662 144.318 976.44 147.234 Q979.218 150.151 979.218 156.077 Z" fill="#ffffff" fill-rule="evenodd" fill-opacity="1" /><path clip-path="url(#clip720)" d="M 0 0 M983.685 134.85 L987.945 134.85 L987.945 170.869 L983.685 170.869 L983.685 134.85 Z" fill="#ffffff" fill-rule="evenodd" fill-opacity="1" /><path clip-path="url(#clip720)" d="M 0 0 M1003.2 173.276 Q1001.39 177.906 999.681 179.318 Q997.968 180.73 995.097 180.73 L991.695 180.73 L991.695 177.165 L994.195 177.165 Q995.954 177.165 996.926 176.332 Q997.898 175.498 999.079 172.396 L999.843 170.452 L989.357 144.943 L993.871 144.943 L1001.97 165.221 L1010.07 144.943 L1014.59 144.943 L1003.2 173.276 Z" fill="#ffffff" fill-rule="evenodd" fill-opacity="1" /><path clip-path="url(#clip720)" d="M 0 0 M1023.27 137.582 L1023.27 144.943 L1032.04 144.943 L1032.04 148.253 L1023.27 148.253 L1023.27 162.327 Q1023.27 165.498 1024.12 166.401 Q1025 167.304 1027.67 167.304 L1032.04 167.304 L1032.04 170.869 L1027.67 170.869 Q1022.74 170.869 1020.86 169.04 Q1018.99 167.188 1018.99 162.327 L1018.99 148.253 L1015.86 148.253 L1015.86 144.943 L1018.99 144.943 L1018.99 137.582 L1023.27 137.582 Z" fill="#ffffff" fill-rule="evenodd" fill-opacity="1" /><path clip-path="url(#clip720)" d="M 0 0 M1036.51 144.943 L1040.77 144.943 L1040.77 170.869 L1036.51 170.869 L1036.51 144.943 M1036.51 134.85 L1040.77 134.85 L1040.77 140.244 L1036.51 140.244 L1036.51 134.85 Z" fill="#ffffff" fill-rule="evenodd" fill-opacity="1" /><path clip-path="url(#clip720)" d="M 0 0 M1063.89 145.938 L1063.89 149.92 Q1062.09 148.924 1060.26 148.438 Q1058.45 147.929 1056.6 147.929 Q1052.46 147.929 1050.17 150.568 Q1047.87 153.184 1047.87 157.929 Q1047.87 162.674 1050.17 165.313 Q1052.46 167.929 1056.6 167.929 Q1058.45 167.929 1060.26 167.443 Q1062.09 166.933 1063.89 165.938 L1063.89 169.873 Q1062.11 170.707 1060.19 171.123 Q1058.29 171.54 1056.14 171.54 Q1050.28 171.54 1046.83 167.859 Q1043.38 164.179 1043.38 157.929 Q1043.38 151.586 1046.86 147.952 Q1050.35 144.318 1056.42 144.318 Q1058.38 144.318 1060.26 144.735 Q1062.13 145.128 1063.89 145.938 Z" fill="#ffffff" fill-rule="evenodd" fill-opacity="1" /><path clip-path="url(#clip720)" d="M 0 0 M1080.14 157.836 Q1074.98 157.836 1072.99 159.017 Q1071 160.197 1071 163.045 Q1071 165.313 1072.48 166.656 Q1073.99 167.975 1076.56 167.975 Q1080.1 167.975 1082.23 165.475 Q1084.38 162.952 1084.38 158.785 L1084.38 157.836 L1080.14 157.836 M1088.64 156.077 L1088.64 170.869 L1084.38 170.869 L1084.38 166.933 Q1082.92 169.295 1080.75 170.429 Q1078.57 171.54 1075.42 171.54 Q1071.44 171.54 1069.08 169.318 Q1066.74 167.072 1066.74 163.322 Q1066.74 158.947 1069.66 156.725 Q1072.6 154.503 1078.41 154.503 L1084.38 154.503 L1084.38 154.086 Q1084.38 151.147 1082.43 149.549 Q1080.51 147.929 1077.02 147.929 Q1074.8 147.929 1072.69 148.461 Q1070.58 148.994 1068.64 150.059 L1068.64 146.123 Q1070.98 145.221 1073.18 144.781 Q1075.37 144.318 1077.46 144.318 Q1083.08 144.318 1085.86 147.234 Q1088.64 150.151 1088.64 156.077 Z" fill="#ffffff" fill-rule="evenodd" fill-opacity="1" /><path clip-path="url(#clip720)" d="M 0 0 M1093.11 134.85 L1097.37 134.85 L1097.37 170.869 L1093.11 170.869 L1093.11 134.85 Z" fill="#ffffff" fill-rule="evenodd" fill-opacity="1" /><path clip-path="url(#clip720)" d="M 0 0 M1133.43 145.707 L1133.43 149.734 Q1131.62 148.809 1129.68 148.346 Q1127.74 147.883 1125.65 147.883 Q1122.48 147.883 1120.88 148.855 Q1119.31 149.827 1119.31 151.771 Q1119.31 153.253 1120.44 154.109 Q1121.58 154.943 1125 155.707 L1126.46 156.031 Q1131 157.003 1132.9 158.785 Q1134.82 160.545 1134.82 163.716 Q1134.82 167.327 1131.95 169.433 Q1129.1 171.54 1124.1 171.54 Q1122.02 171.54 1119.75 171.123 Q1117.5 170.73 1115 169.92 L1115 165.521 Q1117.37 166.748 1119.66 167.373 Q1121.95 167.975 1124.19 167.975 Q1127.2 167.975 1128.82 166.957 Q1130.44 165.915 1130.44 164.04 Q1130.44 162.304 1129.26 161.378 Q1128.11 160.452 1124.15 159.596 L1122.67 159.248 Q1118.71 158.415 1116.95 156.702 Q1115.19 154.966 1115.19 151.957 Q1115.19 148.299 1117.78 146.309 Q1120.37 144.318 1125.14 144.318 Q1127.5 144.318 1129.59 144.665 Q1131.67 145.012 1133.43 145.707 Z" fill="#ffffff" fill-rule="evenodd" fill-opacity="1" /><path clip-path="url(#clip720)" d="M 0 0 M1149.33 147.929 Q1145.91 147.929 1143.92 150.614 Q1141.93 153.276 1141.93 157.929 Q1141.93 162.582 1143.89 165.267 Q1145.88 167.929 1149.33 167.929 Q1152.74 167.929 1154.73 165.244 Q1156.72 162.558 1156.72 157.929 Q1156.72 153.322 1154.73 150.637 Q1152.74 147.929 1149.33 147.929 M1149.33 144.318 Q1154.89 144.318 1158.06 147.929 Q1161.23 151.54 1161.23 157.929 Q1161.23 164.295 1158.06 167.929 Q1154.89 171.54 1149.33 171.54 Q1143.75 171.54 1140.58 167.929 Q1137.43 164.295 1137.43 157.929 Q1137.43 151.54 1140.58 147.929 Q1143.75 144.318 1149.33 144.318 Z" fill="#ffffff" fill-rule="evenodd" fill-opacity="1" /><path clip-path="url(#clip720)" d="M 0 0 M1165.7 134.85 L1169.96 134.85 L1169.96 170.869 L1165.7 170.869 L1165.7 134.85 Z" fill="#ffffff" fill-rule="evenodd" fill-opacity="1" /><path clip-path="url(#clip720)" d="M 0 0 M1173.99 160.637 L1173.99 144.943 L1178.24 144.943 L1178.24 160.475 Q1178.24 164.156 1179.68 166.008 Q1181.11 167.836 1183.99 167.836 Q1187.43 167.836 1189.43 165.637 Q1191.44 163.438 1191.44 159.642 L1191.44 144.943 L1195.7 144.943 L1195.7 170.869 L1191.44 170.869 L1191.44 166.887 Q1189.89 169.248 1187.83 170.406 Q1185.79 171.54 1183.08 171.54 Q1178.61 171.54 1176.3 168.762 Q1173.99 165.984 1173.99 160.637 M1184.7 144.318 L1184.7 144.318 Z" fill="#ffffff" fill-rule="evenodd" fill-opacity="1" /><path clip-path="url(#clip720)" d="M 0 0 M1204.38 137.582 L1204.38 144.943 L1213.15 144.943 L1213.15 148.253 L1204.38 148.253 L1204.38 162.327 Q1204.38 165.498 1205.24 166.401 Q1206.11 167.304 1208.78 167.304 L1213.15 167.304 L1213.15 170.869 L1208.78 170.869 Q1203.85 170.869 1201.97 169.04 Q1200.1 167.188 1200.1 162.327 L1200.1 148.253 L1196.97 148.253 L1196.97 144.943 L1200.1 144.943 L1200.1 137.582 L1204.38 137.582 Z" fill="#ffffff" fill-rule="evenodd" fill-opacity="1" /><path clip-path="url(#clip720)" d="M 0 0 M1217.62 144.943 L1221.88 144.943 L1221.88 170.869 L1217.62 170.869 L1217.62 144.943 M1217.62 134.85 L1221.88 134.85 L1221.88 140.244 L1217.62 140.244 L1217.62 134.85 Z" fill="#ffffff" fill-rule="evenodd" fill-opacity="1" /><path clip-path="url(#clip720)" d="M 0 0 M1236.39 147.929 Q1232.97 147.929 1230.98 150.614 Q1228.99 153.276 1228.99 157.929 Q1228.99 162.582 1230.95 165.267 Q1232.94 167.929 1236.39 167.929 Q1239.8 167.929 1241.79 165.244 Q1243.78 162.558 1243.78 157.929 Q1243.78 153.322 1241.79 150.637 Q1239.8 147.929 1236.39 147.929 M1236.39 144.318 Q1241.95 144.318 1245.12 147.929 Q1248.29 151.54 1248.29 157.929 Q1248.29 164.295 1245.12 167.929 Q1241.95 171.54 1236.39 171.54 Q1230.81 171.54 1227.64 167.929 Q1224.49 164.295 1224.49 157.929 Q1224.49 151.54 1227.64 147.929 Q1230.81 144.318 1236.39 144.318 Z" fill="#ffffff" fill-rule="evenodd" fill-opacity="1" /><path clip-path="url(#clip720)" d="M 0 0 M1274.31 155.221 L1274.31 170.869 L1270.05 170.869 L1270.05 155.359 Q1270.05 151.679 1268.61 149.85 Q1267.18 148.022 1264.31 148.022 Q1260.86 148.022 1258.87 150.221 Q1256.88 152.42 1256.88 156.216 L1256.88 170.869 L1252.6 170.869 L1252.6 144.943 L1256.88 144.943 L1256.88 148.971 Q1258.41 146.633 1260.47 145.475 Q1262.55 144.318 1265.26 144.318 Q1269.73 144.318 1272.02 147.096 Q1274.31 149.85 1274.31 155.221 Z" fill="#ffffff" fill-rule="evenodd" fill-opacity="1" /><circle clip-path="url(#clip720)" cx="801.364" cy="214.069" r="23" fill="#ff0000" fill-rule="evenodd" fill-opacity="1" stroke="#cccccc" stroke-opacity="1" stroke-width="6.82667"/>
<path clip-path="url(#clip720)" d="M 0 0 M896.788 196.789 L903.084 196.789 L918.408 225.701 L918.408 196.789 L922.945 196.789 L922.945 231.349 L916.649 231.349 L901.325 202.437 L901.325 231.349 L896.788 231.349 L896.788 196.789 Z" fill="#ffffff" fill-rule="evenodd" fill-opacity="1" /><path clip-path="url(#clip720)" d="M 0 0 M926.973 221.117 L926.973 205.423 L931.232 205.423 L931.232 220.955 Q931.232 224.636 932.667 226.488 Q934.102 228.316 936.973 228.316 Q940.422 228.316 942.412 226.117 Q944.426 223.918 944.426 220.122 L944.426 205.423 L948.686 205.423 L948.686 231.349 L944.426 231.349 L944.426 227.367 Q942.875 229.728 940.815 230.886 Q938.778 232.02 936.07 232.02 Q931.602 232.02 929.288 229.242 Q926.973 226.464 926.973 221.117 M937.69 204.798 L937.69 204.798 Z" fill="#ffffff" fill-rule="evenodd" fill-opacity="1" /><path clip-path="url(#clip720)" d="M 0 0 M973.338 210.4 Q974.935 207.529 977.158 206.164 Q979.38 204.798 982.389 204.798 Q986.44 204.798 988.639 207.645 Q990.838 210.469 990.838 215.701 L990.838 231.349 L986.556 231.349 L986.556 215.839 Q986.556 212.113 985.236 210.307 Q983.917 208.502 981.209 208.502 Q977.898 208.502 975.977 210.701 Q974.056 212.9 974.056 216.696 L974.056 231.349 L969.773 231.349 L969.773 215.839 Q969.773 212.089 968.454 210.307 Q967.135 208.502 964.38 208.502 Q961.116 208.502 959.195 210.724 Q957.273 212.923 957.273 216.696 L957.273 231.349 L952.991 231.349 L952.991 205.423 L957.273 205.423 L957.273 209.451 Q958.732 207.066 960.769 205.932 Q962.806 204.798 965.607 204.798 Q968.431 204.798 970.398 206.233 Q972.389 207.668 973.338 210.4 Z" fill="#ffffff" fill-rule="evenodd" fill-opacity="1" /><path clip-path="url(#clip720)" d="M 0 0 M1017.48 217.321 L1017.48 219.404 L997.898 219.404 Q998.176 223.802 1000.54 226.117 Q1002.92 228.409 1007.16 228.409 Q1009.61 228.409 1011.9 227.807 Q1014.22 227.205 1016.49 226.001 L1016.49 230.029 Q1014.19 231.001 1011.79 231.511 Q1009.38 232.02 1006.9 232.02 Q1000.7 232.02 997.065 228.409 Q993.454 224.798 993.454 218.64 Q993.454 212.275 996.88 208.548 Q1000.33 204.798 1006.16 204.798 Q1011.39 204.798 1014.43 208.177 Q1017.48 211.534 1017.48 217.321 M1013.22 216.071 Q1013.18 212.576 1011.25 210.492 Q1009.36 208.409 1006.21 208.409 Q1002.64 208.409 1000.49 210.423 Q998.361 212.437 998.037 216.094 L1013.22 216.071 Z" fill="#ffffff" fill-rule="evenodd" fill-opacity="1" /><path clip-path="url(#clip720)" d="M 0 0 M1036.97 209.404 Q1036.25 208.988 1035.4 208.802 Q1034.56 208.594 1033.55 208.594 Q1029.94 208.594 1027.99 210.955 Q1026.07 213.293 1026.07 217.691 L1026.07 231.349 L1021.79 231.349 L1021.79 205.423 L1026.07 205.423 L1026.07 209.451 Q1027.41 207.089 1029.56 205.955 Q1031.72 204.798 1034.8 204.798 Q1035.24 204.798 1035.77 204.867 Q1036.3 204.914 1036.95 205.029 L1036.97 209.404 Z" fill="#ffffff" fill-rule="evenodd" fill-opacity="1" /><path clip-path="url(#clip720)" d="M 0 0 M1041.44 205.423 L1045.7 205.423 L1045.7 231.349 L1041.44 231.349 L1041.44 205.423 M1041.44 195.33 L1045.7 195.33 L1045.7 200.724 L1041.44 200.724 L1041.44 195.33 Z" fill="#ffffff" fill-rule="evenodd" fill-opacity="1" /><path clip-path="url(#clip720)" d="M 0 0 M1068.82 206.418 L1068.82 210.4 Q1067.02 209.404 1065.19 208.918 Q1063.38 208.409 1061.53 208.409 Q1057.39 208.409 1055.1 211.048 Q1052.81 213.664 1052.81 218.409 Q1052.81 223.154 1055.1 225.793 Q1057.39 228.409 1061.53 228.409 Q1063.38 228.409 1065.19 227.923 Q1067.02 227.413 1068.82 226.418 L1068.82 230.353 Q1067.04 231.187 1065.12 231.603 Q1063.22 232.02 1061.07 232.02 Q1055.21 232.02 1051.76 228.339 Q1048.31 224.659 1048.31 218.409 Q1048.31 212.066 1051.79 208.432 Q1055.28 204.798 1061.35 204.798 Q1063.31 204.798 1065.19 205.215 Q1067.06 205.608 1068.82 206.418 Z" fill="#ffffff" fill-rule="evenodd" fill-opacity="1" /><path clip-path="url(#clip720)" d="M 0 0 M1085.07 218.316 Q1079.91 218.316 1077.92 219.497 Q1075.93 220.677 1075.93 223.525 Q1075.93 225.793 1077.41 227.136 Q1078.92 228.455 1081.49 228.455 Q1085.03 228.455 1087.16 225.955 Q1089.31 223.432 1089.31 219.265 L1089.31 218.316 L1085.07 218.316 M1093.57 216.557 L1093.57 231.349 L1089.31 231.349 L1089.31 227.413 Q1087.85 229.775 1085.68 230.909 Q1083.5 232.02 1080.35 232.02 Q1076.37 232.02 1074.01 229.798 Q1071.67 227.552 1071.67 223.802 Q1071.67 219.427 1074.59 217.205 Q1077.53 214.983 1083.34 214.983 L1089.31 214.983 L1089.31 214.566 Q1089.31 211.627 1087.37 210.029 Q1085.44 208.409 1081.95 208.409 Q1079.73 208.409 1077.62 208.941 Q1075.51 209.474 1073.57 210.539 L1073.57 206.603 Q1075.91 205.701 1078.11 205.261 Q1080.31 204.798 1082.39 204.798 Q1088.01 204.798 1090.79 207.714 Q1093.57 210.631 1093.57 216.557 Z" fill="#ffffff" fill-rule="evenodd" fill-opacity="1" /><path clip-path="url(#clip720)" d="M 0 0 M1098.04 195.33 L1102.3 195.33 L1102.3 231.349 L1098.04 231.349 L1098.04 195.33 Z" fill="#ffffff" fill-rule="evenodd" fill-opacity="1" /><path clip-path="url(#clip720)" d="M 0 0 M1138.36 206.187 L1138.36 210.214 Q1136.55 209.289 1134.61 208.826 Q1132.67 208.363 1130.58 208.363 Q1127.41 208.363 1125.81 209.335 Q1124.24 210.307 1124.24 212.251 Q1124.24 213.733 1125.37 214.589 Q1126.51 215.423 1129.93 216.187 L1131.39 216.511 Q1135.93 217.483 1137.83 219.265 Q1139.75 221.025 1139.75 224.196 Q1139.75 227.807 1136.88 229.913 Q1134.03 232.02 1129.03 232.02 Q1126.95 232.02 1124.68 231.603 Q1122.43 231.21 1119.93 230.4 L1119.93 226.001 Q1122.3 227.228 1124.59 227.853 Q1126.88 228.455 1129.12 228.455 Q1132.13 228.455 1133.75 227.437 Q1135.37 226.395 1135.37 224.52 Q1135.37 222.784 1134.19 221.858 Q1133.04 220.932 1129.08 220.076 L1127.6 219.728 Q1123.64 218.895 1121.88 217.182 Q1120.12 215.446 1120.12 212.437 Q1120.12 208.779 1122.71 206.789 Q1125.31 204.798 1130.07 204.798 Q1132.43 204.798 1134.52 205.145 Q1136.6 205.492 1138.36 206.187 Z" fill="#ffffff" fill-rule="evenodd" fill-opacity="1" /><path clip-path="url(#clip720)" d="M 0 0 M1154.26 208.409 Q1150.84 208.409 1148.85 211.094 Q1146.86 213.756 1146.86 218.409 Q1146.86 223.062 1148.82 225.747 Q1150.81 228.409 1154.26 228.409 Q1157.67 228.409 1159.66 225.724 Q1161.65 223.038 1161.65 218.409 Q1161.65 213.802 1159.66 211.117 Q1157.67 208.409 1154.26 208.409 M1154.26 204.798 Q1159.82 204.798 1162.99 208.409 Q1166.16 212.02 1166.16 218.409 Q1166.16 224.775 1162.99 228.409 Q1159.82 232.02 1154.26 232.02 Q1148.68 232.02 1145.51 228.409 Q1142.37 224.775 1142.37 218.409 Q1142.37 212.02 1145.51 208.409 Q1148.68 204.798 1154.26 204.798 Z" fill="#ffffff" fill-rule="evenodd" fill-opacity="1" /><path clip-path="url(#clip720)" d="M 0 0 M1170.63 195.33 L1174.89 195.33 L1174.89 231.349 L1170.63 231.349 L1170.63 195.33 Z" fill="#ffffff" fill-rule="evenodd" fill-opacity="1" /><path clip-path="url(#clip720)" d="M 0 0 M1178.92 221.117 L1178.92 205.423 L1183.18 205.423 L1183.18 220.955 Q1183.18 224.636 1184.61 226.488 Q1186.05 228.316 1188.92 228.316 Q1192.36 228.316 1194.36 226.117 Q1196.37 223.918 1196.37 220.122 L1196.37 205.423 L1200.63 205.423 L1200.63 231.349 L1196.37 231.349 L1196.37 227.367 Q1194.82 229.728 1192.76 230.886 Q1190.72 232.02 1188.01 232.02 Q1183.55 232.02 1181.23 229.242 Q1178.92 226.464 1178.92 221.117 M1189.63 204.798 L1189.63 204.798 Z" fill="#ffffff" fill-rule="evenodd" fill-opacity="1" /><path clip-path="url(#clip720)" d="M 0 0 M1209.31 198.062 L1209.31 205.423 L1218.08 205.423 L1218.08 208.733 L1209.31 208.733 L1209.31 222.807 Q1209.31 225.978 1210.17 226.881 Q1211.05 227.784 1213.71 227.784 L1218.08 227.784 L1218.08 231.349 L1213.71 231.349 Q1208.78 231.349 1206.9 229.52 Q1205.03 227.668 1205.03 222.807 L1205.03 208.733 L1201.9 208.733 L1201.9 205.423 L1205.03 205.423 L1205.03 198.062 L1209.31 198.062 Z" fill="#ffffff" fill-rule="evenodd" fill-opacity="1" /><path clip-path="url(#clip720)" d="M 0 0 M1222.55 205.423 L1226.81 205.423 L1226.81 231.349 L1222.55 231.349 L1222.55 205.423 M1222.55 195.33 L1226.81 195.33 L1226.81 200.724 L1222.55 200.724 L1222.55 195.33 Z" fill="#ffffff" fill-rule="evenodd" fill-opacity="1" /><path clip-path="url(#clip720)" d="M 0 0 M1241.32 208.409 Q1237.9 208.409 1235.91 211.094 Q1233.92 213.756 1233.92 218.409 Q1233.92 223.062 1235.88 225.747 Q1237.87 228.409 1241.32 228.409 Q1244.73 228.409 1246.72 225.724 Q1248.71 223.038 1248.71 218.409 Q1248.71 213.802 1246.72 211.117 Q1244.73 208.409 1241.32 208.409 M1241.32 204.798 Q1246.88 204.798 1250.05 208.409 Q1253.22 212.02 1253.22 218.409 Q1253.22 224.775 1250.05 228.409 Q1246.88 232.02 1241.32 232.02 Q1235.74 232.02 1232.57 228.409 Q1229.42 224.775 1229.42 218.409 Q1229.42 212.02 1232.57 208.409 Q1235.74 204.798 1241.32 204.798 Z" fill="#ffffff" fill-rule="evenodd" fill-opacity="1" /><path clip-path="url(#clip720)" d="M 0 0 M1279.24 215.701 L1279.24 231.349 L1274.98 231.349 L1274.98 215.839 Q1274.98 212.159 1273.54 210.33 Q1272.11 208.502 1269.24 208.502 Q1265.79 208.502 1263.8 210.701 Q1261.81 212.9 1261.81 216.696 L1261.81 231.349 L1257.53 231.349 L1257.53 205.423 L1261.81 205.423 L1261.81 209.451 Q1263.34 207.113 1265.4 205.955 Q1267.48 204.798 1270.19 204.798 Q1274.66 204.798 1276.95 207.576 Q1279.24 210.33 1279.24 215.701 Z" fill="#ffffff" fill-rule="evenodd" fill-opacity="1" /></svg>
